<?xml version="1.0" encoding="UTF-8" standalone="no"?>
<svg
   xmlns:dc="http://purl.org/dc/elements/1.1/"
   xmlns:cc="http://creativecommons.org/ns#"
   xmlns:rdf="http://www.w3.org/1999/02/22-rdf-syntax-ns#"
   xmlns:svg="http://www.w3.org/2000/svg"
   xmlns="http://www.w3.org/2000/svg"
   xmlns:sodipodi="http://sodipodi.sourceforge.net/DTD/sodipodi-0.dtd"
   xmlns:inkscape="http://www.inkscape.org/namespaces/inkscape"
   width="793.700787402"
   height="1122.51968504"
   version="1.1"
   id="svg32"
   sodipodi:docname="case.svg"
   inkscape:version="0.92.4 (5da689c313, 2019-01-14)">
  <metadata
     id="metadata36">
    <rdf:RDF>
      <cc:Work
         rdf:about="">
        <dc:format>image/svg+xml</dc:format>
        <dc:type
           rdf:resource="http://purl.org/dc/dcmitype/StillImage" />
        <dc:title></dc:title>
      </cc:Work>
    </rdf:RDF>
  </metadata>
  <sodipodi:namedview
     pagecolor="#ffffff"
     bordercolor="#666666"
     borderopacity="1"
     objecttolerance="10"
     gridtolerance="10"
     guidetolerance="10"
     inkscape:pageopacity="0"
     inkscape:pageshadow="2"
     inkscape:window-width="1920"
     inkscape:window-height="1017"
     id="namedview34"
     showgrid="false"
     inkscape:zoom="1.6819305"
     inkscape:cx="105.1856"
     inkscape:cy="181.41991"
     inkscape:window-x="-8"
     inkscape:window-y="-7"
     inkscape:window-maximized="1"
     inkscape:current-layer="g30" />
  <desc
     id="desc2">C:\Users\funvill\Documents\git\XY-502-TPA3116-case\case.dxf - scale = 1.000000, origin = (0.000000, 0.000000), method = manual</desc>
  <defs
     id="defs16">
    <marker
       id="DistanceX"
       orient="auto"
       refX="0.0"
       refY="0.0"
       style="overflow:visible">
      <path
         d="M 3,-3 L -3,3 M 0,-5 L  0,5"
         style="stroke:#000000; stroke-width:0.5"
         id="path4" />
    </marker>
    <pattern
       height="8"
       id="Hatch"
       patternUnits="userSpaceOnUse"
       width="8"
       x="0"
       y="0">
      <path
         d="M8 4 l-4,4"
         linecap="square"
         stroke="#000000"
         stroke-width="0.25"
         id="path7" />
      <path
         d="M6 2 l-4,4"
         linecap="square"
         stroke="#000000"
         stroke-width="0.25"
         id="path9" />
      <path
         d="M4 0 l-4,4"
         linecap="square"
         stroke="#000000"
         stroke-width="0.25"
         id="path11" />
    </pattern>
    <symbol
       id="*MODEL_SPACE" />
    <symbol
       id="*PAPER_SPACE" />
  </defs>
  <g
     inkscape:groupmode="layer"
     inkscape:label="0"
     id="g30">
    <path
       d="M 253.228346,1122.519685 L 11.338583,1122.519685 A 11.338583,11.338583 0.0 0 1 0.000000,1111.181102 L 0.000000,999.368309 A 11.338583,11.338583 0.0 0 1 7.086614,988.857162 A 18.897638,18.897638 0.0 0 0 7.086614,953.820004 A 11.338583,11.338583 0.0 0 1 0.000000,943.308856 L 0.000000,925.984252 A 11.338583,11.338583 0.0 0 1 11.338583,914.645669 L 253.228346,914.645669 A 11.338583,11.338583 0.0 0 1 264.566929,925.984252 L 264.566929,1111.181102 A 11.338583,11.338583 0.0 0 1 253.228346,1122.519685 z"
       style="stroke:#000000;fill:none;stroke-width:1"
       id="path18" />
    <path
       d="M 31.559055,933.543307 A 6.992126,6.992126 -0.000000 1 0 17.574803,933.543307 6.992126,6.992126 -0.000000 1 0 31.559055,933.543307 z"
       style="stroke:#000000;fill:none;stroke-width:1"
       id="path20" />
    <path
       d="M 31.559055,1103.622047 A 6.992126,6.992126 -0.000000 1 0 17.574803,1103.622047 6.992126,6.992126 -0.000000 1 0 31.559055,1103.622047 z"
       style="stroke:#000000;fill:none;stroke-width:1"
       id="path22" />
    <path
       d="M 246.992126,1103.622047 A 6.992126,6.992126 -0.000000 1 0 233.007874,1103.622047 6.992126,6.992126 -0.000000 1 0 246.992126,1103.622047 z"
       style="stroke:#000000;fill:none;stroke-width:1"
       id="path24" />
    <path
       d="M 246.992126,933.543307 A 6.992126,6.992126 -0.000000 1 0 233.007874,933.543307 6.992126,6.992126 -0.000000 1 0 246.992126,933.543307 z"
       style="stroke:#000000;fill:none;stroke-width:1"
       id="path26" />
    <path
       d="m 147.62374,859.94364 h -37.79528 v 37.79527 h 37.79528 z"
       style="fill:none;stroke:#000000;stroke-width:1"
       id="path28"
       inkscape:connector-curvature="0" />
    <text
       xml:space="preserve"
       style="font-style:normal;font-weight:normal;font-size:10.02581882px;line-height:1.25;font-family:sans-serif;text-align:center;letter-spacing:0px;word-spacing:0px;text-anchor:middle;fill:#000000;fill-opacity:1;stroke:none;stroke-width:0.25064546"
       x="127.84793"
       y="876.71497"
       id="text3744"><tspan
         sodipodi:role="line"
         id="tspan3742"
         x="127.84793"
         y="876.71497"
         style="text-align:center;text-anchor:middle;stroke-width:0.25064546">10x10</tspan><tspan
         sodipodi:role="line"
         x="127.84793"
         y="889.24725"
         style="text-align:center;text-anchor:middle;stroke-width:0.25064546"
         id="tspan3746">mm</tspan></text>
    <text
       xml:space="preserve"
       style="font-style:normal;font-weight:normal;font-size:28.02519608px;line-height:1.25;font-family:sans-serif;letter-spacing:0px;word-spacing:0px;fill:#000000;fill-opacity:1;stroke:none;stroke-width:0.70062989"
       x="8.1268158"
       y="844.29877"
       id="text3750"><tspan
         sodipodi:role="line"
         id="tspan3748"
         x="8.1268158"
         y="844.29877"
         style="stroke-width:0.70062989">XY-502 Amp Case</tspan></text>
  </g>
</svg>
