<?xml version="1.0" encoding="UTF-8" standalone="no"?>
<svg
   xmlns:dc="http://purl.org/dc/elements/1.1/"
   xmlns:cc="http://creativecommons.org/ns#"
   xmlns:rdf="http://www.w3.org/1999/02/22-rdf-syntax-ns#"
   xmlns:svg="http://www.w3.org/2000/svg"
   xmlns="http://www.w3.org/2000/svg"
   xmlns:sodipodi="http://sodipodi.sourceforge.net/DTD/sodipodi-0.dtd"
   xmlns:inkscape="http://www.inkscape.org/namespaces/inkscape"
   inkscape:version="1.0 (4035a4fb49, 2020-05-01)"
   sodipodi:docname="case.svg"
   id="svg32"
   version="1.1"
   height="350"
   width="300">
  <metadata
     id="metadata36">
    <rdf:RDF>
      <cc:Work
         rdf:about="">
        <dc:format>image/svg+xml</dc:format>
        <dc:type
           rdf:resource="http://purl.org/dc/dcmitype/StillImage" />
        <dc:title></dc:title>
      </cc:Work>
    </rdf:RDF>
  </metadata>
  <sodipodi:namedview
     inkscape:document-rotation="0"
     inkscape:current-layer="g30"
     inkscape:window-maximized="1"
     inkscape:window-y="-7"
     inkscape:window-x="-8"
     inkscape:cy="531.48226"
     inkscape:cx="-0.48016043"
     inkscape:zoom="0.59465223"
     showgrid="false"
     id="namedview34"
     inkscape:window-height="1017"
     inkscape:window-width="1920"
     inkscape:pageshadow="2"
     inkscape:pageopacity="0"
     guidetolerance="10"
     gridtolerance="10"
     objecttolerance="10"
     borderopacity="1"
     bordercolor="#666666"
     pagecolor="#ffffff" />
  <desc
     id="desc2">C:\Users\funvill\Documents\git\XY-502-TPA3116-case\case.dxf - scale = 1.000000, origin = (0.000000, 0.000000), method = manual</desc>
  <defs
     id="defs16">
    <marker
       style="overflow:visible"
       refY="0"
       refX="0"
       orient="auto"
       id="DistanceX">
      <path
         id="path4"
         style="stroke:#000000;stroke-width:0.5"
         d="M 3,-3 -3,3 M 0,-5 V 5" />
    </marker>
    <pattern
       y="0"
       x="0"
       width="8"
       patternUnits="userSpaceOnUse"
       id="Hatch"
       height="8">
      <path
         id="path7"
         stroke-width="0.25"
         stroke="#000000"
         linecap="square"
         d="M8 4 l-4,4" />
      <path
         id="path9"
         stroke-width="0.25"
         stroke="#000000"
         linecap="square"
         d="M6 2 l-4,4" />
      <path
         id="path11"
         stroke-width="0.25"
         stroke="#000000"
         linecap="square"
         d="M4 0 l-4,4" />
    </pattern>
    <symbol
       id="*MODEL_SPACE" />
    <symbol
       id="*PAPER_SPACE" />
  </defs>
  <g
     id="g30"
     inkscape:label="0"
     inkscape:groupmode="layer">
    <path
       id="path18"
       style="fill:none;stroke:#000000;stroke-width:1"
       d="M 271.72655,322.05186 H 29.83679 A 11.338583,11.338583 0 0 1 18.498207,310.71326 V 198.90045 a 11.338583,11.338583 0 0 1 7.086614,-10.51115 18.897638,18.897638 0 0 0 0,-35.03715 A 11.338583,11.338583 0 0 1 18.498207,142.841 V 125.51639 A 11.338583,11.338583 0 0 1 29.83679,114.17781 h 241.88976 a 11.338583,11.338583 0 0 1 11.33858,11.33858 v 185.19687 a 11.338583,11.338583 0 0 1 -11.33858,11.3386 z" />
    <path
       id="path20"
       style="fill:none;stroke:#000000;stroke-width:1"
       d="m 50.057262,133.07545 a 6.992126,6.992126 0 1 0 -13.984252,0 6.992126,6.992126 0 1 0 13.984252,0 z" />
    <path
       id="path22"
       style="fill:none;stroke:#000000;stroke-width:1"
       d="m 50.057262,303.15416 a 6.992126,6.992126 0 1 0 -13.984252,0 6.992126,6.992126 0 1 0 13.984252,0 z" />
    <path
       id="path24"
       style="fill:none;stroke:#000000;stroke-width:1"
       d="m 265.49033,303.15416 a 6.992126,6.992126 0 1 0 -13.98425,0 6.992126,6.992126 0 1 0 13.98425,0 z" />
    <path
       id="path26"
       style="fill:none;stroke:#000000;stroke-width:1"
       d="m 265.49033,133.07545 a 6.992126,6.992126 0 1 0 -13.98425,0 6.992126,6.992126 0 1 0 13.98425,0 z" />
    <path
       inkscape:connector-curvature="0"
       id="path28"
       style="fill:none;stroke:#000000;stroke-width:1"
       d="m 166.12194,59.475776 h -37.79528 v 37.79527 h 37.79528 z" />
    <text
       id="text3744"
       y="76.247108"
       x="146.34613"
       style="font-style:normal;font-weight:normal;font-size:10.0258px;line-height:1.25;font-family:sans-serif;text-align:center;letter-spacing:0px;word-spacing:0px;text-anchor:middle;fill:#000000;fill-opacity:1;stroke:none;stroke-width:0.250645"
       xml:space="preserve"><tspan
         style="text-align:center;text-anchor:middle;stroke-width:0.250645"
         y="76.247108"
         x="146.34613"
         id="tspan3742"
         sodipodi:role="line">10x10</tspan><tspan
         id="tspan3746"
         style="text-align:center;text-anchor:middle;stroke-width:0.250645"
         y="88.779335"
         x="146.34613"
         sodipodi:role="line">mm</tspan></text>
    <text
       id="text3750"
       y="43.830914"
       x="26.625023"
       style="font-style:normal;font-weight:normal;font-size:28.0252px;line-height:1.25;font-family:sans-serif;letter-spacing:0px;word-spacing:0px;fill:#000000;fill-opacity:1;stroke:none;stroke-width:0.70063"
       xml:space="preserve"><tspan
         style="stroke-width:0.70063"
         y="43.830914"
         x="26.625023"
         id="tspan3748"
         sodipodi:role="line">XY-502 Amp Case</tspan></text>
  </g>
</svg>
